<svg width="480" height="480" viewBox="0 0 480 480" fill="none" xmlns="http://www.w3.org/2000/svg">
<path d="M330.229 118.902L332.73 116.402L329.855 114.342C304.529 96.1978 273.528 85.474 240.061 85.474C154.817 85.474 85.474 154.818 85.474 240.062C85.474 273.53 96.203 304.529 114.341 329.855L116.4 332.73L118.901 330.229L330.229 118.902ZM153.753 363.934L151.171 366.515L154.204 368.547C178.784 385.014 208.316 394.649 240.061 394.649C325.308 394.649 394.648 325.308 394.648 240.061C394.648 208.321 385.013 178.775 368.547 154.203L366.515 151.17L363.934 153.752L153.753 363.934ZM37 240.062C37 128.093 128.098 37 240.061 37C352.02 37 443.123 128.093 443.123 240.061C443.123 352.033 352.02 443.122 240.061 443.122C128.098 443.122 37 352.033 37 240.062Z" fill="#E70000" stroke="black" stroke-width="6"/>
</svg>
