<svg width="480" height="480" viewBox="0 0 480 480" fill="none" xmlns="http://www.w3.org/2000/svg">
<path d="M217.568 167.619L108.017 57.9542C95.908 45.8329 76.2624 45.8329 64.1536 57.9542L59.8864 62.2258C47.7952 74.3295 47.7952 93.9402 59.8864 106.044L171.818 218.091C183.909 230.195 183.909 249.805 171.818 261.909L59.8864 373.956C47.7952 386.06 47.7952 405.671 59.8864 417.774L64.1536 422.046C76.2625 434.167 95.908 434.167 108.017 422.046L217.568 312.381C229.677 300.26 249.323 300.26 261.432 312.381L370.983 422.046C383.092 434.167 402.738 434.167 414.846 422.046L419.114 417.774C431.205 405.671 431.205 386.06 419.114 373.956L307.182 261.909C295.091 249.805 295.091 230.195 307.182 218.091L419.114 106.044C431.205 93.9402 431.205 74.3295 419.114 62.2258L414.846 57.9542C402.738 45.8329 383.092 45.8329 370.983 57.9542L261.432 167.619C249.323 179.74 229.677 179.74 217.568 167.619Z" fill="#FF0000" stroke="black" stroke-width="6"/>
</svg>
