<svg width="480" height="480" viewBox="0 0 480 480" fill="none" xmlns="http://www.w3.org/2000/svg">
<path d="M186.576 360.555L185.675 359.389H184.201H74.0218C62.0956 359.389 52 348.777 52 335.14V106.249C52 92.6103 62.0948 82 74.0218 82H405.978C417.904 82 428 92.6103 428 106.249V335.14C428 348.777 417.904 359.389 405.978 359.389H295.8H294.327L293.426 360.555L256.776 408.007C252.554 413.473 246.402 416.55 240.001 416.55C233.6 416.55 227.447 413.472 223.226 408.007L220.852 409.841L223.226 408.007L186.576 360.555ZM118.105 299.991H319.166C327.968 299.991 334.677 292.302 334.677 283.367C334.677 274.432 327.968 266.742 319.166 266.742H118.105C109.303 266.742 102.594 274.432 102.594 283.367C102.594 292.302 109.303 299.991 118.105 299.991ZM118.105 205.179C109.303 205.179 102.594 212.868 102.594 221.803C102.594 230.739 109.303 238.428 118.105 238.428H272.493C281.294 238.428 288.003 230.739 288.003 221.803C288.003 212.868 281.294 205.179 272.493 205.179H118.105ZM118.105 176.863H361.895C370.697 176.863 377.406 169.173 377.405 160.238C377.405 151.303 370.696 143.614 361.894 143.614H118.105C109.303 143.614 102.594 151.303 102.594 160.238C102.594 169.173 109.303 176.863 118.105 176.863Z" fill="white" stroke="black" stroke-width="6"/>
</svg>
