<svg width="480" height="480" viewBox="0 0 480 480" fill="none" xmlns="http://www.w3.org/2000/svg">
<path d="M310 390.739C310 370.446 326.445 354 346.739 354C367.027 354 383.479 370.446 383.479 390.739C383.479 411.032 367.027 427.478 346.739 427.478C326.445 427.478 310 411.033 310 390.739Z" fill="white" stroke="black" stroke-width="6"/>
<path d="M138.634 216.106C141.934 238.585 134.403 261.403 118.335 277.455L59.2855 336.518C46.9024 348.901 46.9024 368.965 59.2998 381.362C71.6629 393.74 91.763 393.717 104.105 381.362L163.168 322.299C179.253 306.208 202.015 298.688 224.524 301.996C234.846 303.516 245.494 303.442 256.167 302.109L138.521 184.461C137.181 195.135 137.119 205.783 138.634 216.106Z" fill="black"/>
<path d="M178.255 105.888L178.255 105.888C227.543 56.5955 302.479 51.7905 345.653 94.9638C388.827 138.139 384.028 213.087 334.746 262.369C323.643 273.465 311.204 282.218 298.144 288.752L151.863 142.486C158.406 129.424 167.152 116.985 178.255 105.888Z" fill="#FF0000" stroke="black"/>
</svg>
