<svg width="480" height="480" viewBox="0 0 480 480" fill="none" xmlns="http://www.w3.org/2000/svg">
<path d="M57.5042 212.969C57.8436 212.15 58.336 211.412 58.9482 210.793L138.796 130.951C141.398 128.35 145.604 128.35 148.206 130.951C150.808 133.553 150.808 137.759 148.206 140.361L79.7104 208.856H223.355C227.035 208.856 230.01 211.831 230.01 215.511C230.01 219.191 227.035 222.165 223.355 222.165H79.7104L148.206 290.661C150.808 293.262 150.808 297.468 148.206 300.07C146.908 301.368 145.204 302.02 143.501 302.02C141.797 302.02 140.094 301.368 138.796 300.07L58.9482 220.222C58.3293 219.61 57.8436 218.871 57.5042 218.053C56.8321 216.429 56.8321 214.592 57.5042 212.969Z" fill="#F53E6C"/>
<path d="M177.655 249.982C181.335 249.982 184.309 252.956 184.309 256.636V363.109H250.855V110.236C250.855 107.335 252.731 104.773 255.493 103.895L361.047 70.3091H184.309V176.782C184.309 180.462 181.335 183.436 177.655 183.436C173.975 183.436 171 180.462 171 176.782V63.6545C171 59.9746 173.975 57 177.655 57H403.909C404.122 57 404.308 57.0998 404.515 57.1198C404.887 57.1531 405.213 57.2396 405.566 57.3327C406.192 57.4991 406.751 57.7253 407.29 58.0514C407.463 58.1579 407.669 58.1579 407.835 58.2777C408.042 58.4307 408.201 58.6237 408.388 58.7901C408.501 58.8965 408.621 58.9897 408.727 59.1028C409.233 59.6485 409.645 60.2541 409.952 60.9195C410.011 61.0526 410.045 61.1857 410.098 61.3188C410.377 62.0641 410.564 62.8427 410.564 63.6545V369.764C410.564 370.595 410.371 371.381 410.085 372.126C409.991 372.372 409.852 372.579 409.732 372.811C409.486 373.284 409.206 373.716 408.854 374.116C408.661 374.329 408.468 374.522 408.255 374.715C407.869 375.054 407.436 375.333 406.97 375.58C406.724 375.713 406.498 375.853 406.232 375.952C406.118 375.992 406.032 376.072 405.919 376.112L259.519 422.694C258.867 422.894 258.188 423 257.509 423C256.112 423 254.734 422.561 253.583 421.722C251.866 420.471 250.855 418.475 250.855 416.345V376.418H177.655C173.975 376.418 171 373.444 171 369.764V256.636C171 252.956 173.981 249.982 177.655 249.982Z" fill="#F53E6C"/>
</svg>
