<svg width="480" height="480" viewBox="0 0 480 480" fill="none" xmlns="http://www.w3.org/2000/svg">
<path d="M230.342 333.083L224.726 338.12L232.247 338.814C253.696 340.795 273.892 350.137 289.197 365.527L289.199 365.528C306.517 382.916 316.153 406.403 315.998 430.886L315.238 445H160.859H21L21.7595 429.745L21.7631 429.675L21.7635 429.605C22.1057 381.499 59.4737 342.415 106.802 338.758L114.476 338.165L108.759 333.024C90.2779 316.406 78.6186 292.446 78.6186 265.724C78.6186 215.61 119.34 175 169.589 175C219.829 175 260.56 215.611 260.56 265.724C260.56 292.494 248.853 316.474 230.342 333.083Z" fill="white" stroke="black" stroke-width="6"/>
<path d="M432.197 257.916L432.2 257.918C449.551 275.359 459.184 298.922 458.997 323.494L458.09 445H351.908L352.556 432.719L352.557 432.691L352.558 432.661L352.578 432.084L352.579 432.075V432.068L352.599 431.389L352.6 431.352V431.316C352.86 397.139 339.171 363.633 315.068 339.387C306.415 330.668 296.593 323.288 285.967 317.407C293.239 301.173 297.134 283.451 297.134 265.336C297.134 213.655 266.261 169.042 222 148.922C226.504 102.942 265.31 67 312.53 67C362.797 67 403.521 107.683 403.521 157.888C403.521 184.716 391.848 208.735 373.322 225.385L367.705 230.434L375.228 231.128C396.693 233.113 416.907 242.504 432.197 257.916Z" fill="white" stroke="black" stroke-width="6"/>
<path d="M171 109.272C171 120.162 162.16 129.008 151.273 129.008C119.2 129.008 105.256 129.006 93.1092 129.004L90.818 129.003C79.5921 129.001 69.0351 128.999 45.727 128.999C34.824 128.999 26 120.155 26 109.264C26 98.3816 34.8232 89.5366 45.727 89.5366C70.2417 89.5366 80.2616 89.5385 90.8996 89.5406L93.0095 89.541C104.503 89.5432 117.827 89.5453 151.273 89.5453C162.161 89.5453 171 98.3919 171 109.272Z" fill="#FF0000" stroke="black" stroke-width="6"/>
</svg>
