<svg width="480" height="480" viewBox="0 0 480 480" fill="none" xmlns="http://www.w3.org/2000/svg">
<path d="M409.497 201.334H358.764C356.778 195.301 354.35 189.467 351.511 183.874L387.4 147.985C391.111 144.274 391.111 138.259 387.4 134.55L345.447 92.5968C341.737 88.8863 335.722 88.8863 332.012 92.5968L296.123 128.486C290.53 125.647 284.697 123.219 278.664 121.233V70.5007C278.665 65.2533 274.411 61 269.164 61H209.834C204.588 61 200.334 65.2533 200.334 70.4999V121.233C194.301 123.218 188.468 125.647 182.874 128.486L146.986 92.5976C143.275 88.8871 137.26 88.8871 133.55 92.5976L91.5976 134.55C87.8871 138.26 87.8871 144.276 91.5976 147.986L127.486 183.874C124.647 189.467 122.218 195.301 120.233 201.334H69.5007C64.2533 201.334 60 205.588 60 210.834V270.164C60 275.411 64.2533 279.664 69.5007 279.664H120.233C122.22 285.697 124.648 291.53 127.487 297.124L91.5983 333.012C87.8879 336.722 87.8879 342.738 91.5983 346.447L133.551 388.4C137.262 392.11 143.277 392.11 146.986 388.4L182.875 352.512C188.468 355.35 194.301 357.779 200.335 359.765V410.498C200.335 415.744 204.588 419.998 209.835 419.998H269.165C274.411 419.998 278.665 415.744 278.665 410.498V359.765C284.698 357.779 290.532 355.35 296.124 352.512L332.014 388.4C335.724 392.11 341.739 392.11 345.449 388.4L387.402 346.447C391.112 342.737 391.112 336.722 387.402 333.012L351.513 297.124C354.352 291.531 356.78 285.698 358.767 279.665H409.499C414.746 279.665 419 275.411 419 270.165V210.835C418.998 205.588 414.744 201.334 409.497 201.334ZM239.499 287.797C213.377 287.797 192.2 266.62 192.2 240.498C192.2 214.376 213.377 193.199 239.499 193.199C265.621 193.199 286.798 214.376 286.798 240.498C286.798 266.62 265.621 287.797 239.499 287.797Z" fill="#F53E6C"/>
</svg>
