<svg width="480" height="480" viewBox="0 0 480 480" fill="none" xmlns="http://www.w3.org/2000/svg">
<mask id="path-1-inside-1" fill="white">
<path fill-rule="evenodd" clip-rule="evenodd" d="M34 240.062C34 126.436 126.441 34 240.061 34C353.677 34 446.123 126.436 446.123 240.061C446.123 353.69 353.677 446.122 240.061 446.122C126.441 446.122 34 353.69 34 240.062ZM240.061 88.474C156.474 88.474 88.474 156.475 88.474 240.062C88.474 272.878 98.992 303.271 116.78 328.108L328.108 116.781C303.271 98.987 272.877 88.474 240.061 88.474ZM155.874 366.055C179.978 382.203 208.932 391.649 240.061 391.649C323.651 391.649 391.648 323.651 391.648 240.061C391.648 208.937 382.202 179.969 366.055 155.873L155.874 366.055ZM293.079 167.871C295.226 170.863 299.641 174.77 304 171.5C307.332 169.001 311.178 169.891 313.999 171.394C316.02 172.47 316.747 174.864 316.331 177.115C315.461 181.812 319.656 185.879 324.324 184.864L325.728 184.559C325.909 184.52 326.093 184.5 326.278 184.5C328.582 184.5 329.739 187.281 328.117 188.915L201.324 316.626C198.327 319.645 193.182 318.23 192.151 314.103C191.491 311.463 188.983 309.703 186.321 310.268C182.922 310.989 178.832 312.198 176 314C172.273 316.372 173.544 308.149 175.135 301.729C175.643 299.679 175.284 297.498 174.057 295.779C172.251 293.251 168.979 292.241 166.063 293.31L157.407 296.484C156.59 296.784 155.677 296.461 155.229 295.715C154.801 295.001 154.914 294.087 155.504 293.5L286.157 163.32C288.502 160.984 292.5 162.644 292.5 165.954C292.5 166.638 292.68 167.315 293.079 167.871Z"/>
</mask>
<path fill-rule="evenodd" clip-rule="evenodd" d="M34 240.062C34 126.436 126.441 34 240.061 34C353.677 34 446.123 126.436 446.123 240.061C446.123 353.69 353.677 446.122 240.061 446.122C126.441 446.122 34 353.69 34 240.062ZM240.061 88.474C156.474 88.474 88.474 156.475 88.474 240.062C88.474 272.878 98.992 303.271 116.78 328.108L328.108 116.781C303.271 98.987 272.877 88.474 240.061 88.474ZM155.874 366.055C179.978 382.203 208.932 391.649 240.061 391.649C323.651 391.649 391.648 323.651 391.648 240.061C391.648 208.937 382.202 179.969 366.055 155.873L155.874 366.055ZM293.079 167.871C295.226 170.863 299.641 174.77 304 171.5C307.332 169.001 311.178 169.891 313.999 171.394C316.02 172.47 316.747 174.864 316.331 177.115C315.461 181.812 319.656 185.879 324.324 184.864L325.728 184.559C325.909 184.52 326.093 184.5 326.278 184.5C328.582 184.5 329.739 187.281 328.117 188.915L201.324 316.626C198.327 319.645 193.182 318.23 192.151 314.103C191.491 311.463 188.983 309.703 186.321 310.268C182.922 310.989 178.832 312.198 176 314C172.273 316.372 173.544 308.149 175.135 301.729C175.643 299.679 175.284 297.498 174.057 295.779C172.251 293.251 168.979 292.241 166.063 293.31L157.407 296.484C156.59 296.784 155.677 296.461 155.229 295.715C154.801 295.001 154.914 294.087 155.504 293.5L286.157 163.32C288.502 160.984 292.5 162.644 292.5 165.954C292.5 166.638 292.68 167.315 293.079 167.871Z" fill="#E70000"/>
<path d="M116.78 328.108L111.902 331.602L116.021 337.353L121.023 332.351L116.78 328.108ZM328.108 116.781L332.351 121.024L337.352 116.023L331.602 111.904L328.108 116.781ZM155.874 366.055L151.631 361.812L146.468 366.976L152.535 371.04L155.874 366.055ZM366.055 155.873L371.039 152.533L366.975 146.468L361.812 151.63L366.055 155.873ZM304 171.5L307.6 176.3L307.6 176.3L304 171.5ZM293.079 167.871L288.204 171.368L288.204 171.369L293.079 167.871ZM313.999 171.394L311.178 176.69L311.178 176.69L313.999 171.394ZM316.331 177.115L322.23 178.207L322.23 178.207L316.331 177.115ZM324.324 184.864L325.599 190.727L325.599 190.727L324.324 184.864ZM325.728 184.559L324.454 178.696L324.453 178.696L325.728 184.559ZM328.117 188.915L323.859 184.688L323.859 184.688L328.117 188.915ZM201.324 316.626L205.582 320.854L205.582 320.854L201.324 316.626ZM192.151 314.103L186.33 315.558L186.33 315.558L192.151 314.103ZM186.321 310.268L185.076 304.398L185.076 304.399L186.321 310.268ZM176 314L179.221 319.062L179.221 319.062L176 314ZM175.135 301.729L169.311 300.286L169.311 300.286L175.135 301.729ZM174.057 295.779L178.939 292.292L178.939 292.292L174.057 295.779ZM166.063 293.31L168.128 298.944L168.128 298.944L166.063 293.31ZM157.407 296.484L155.341 290.851L155.341 290.851L157.407 296.484ZM155.229 295.715L150.084 298.802L150.084 298.802L155.229 295.715ZM155.504 293.5L151.269 289.249L151.269 289.249L155.504 293.5ZM286.157 163.32L281.922 159.069L281.922 159.069L286.157 163.32ZM240.061 28C123.127 28 28 123.122 28 240.062H40C40 129.75 129.755 40 240.061 40V28ZM452.123 240.061C452.123 123.122 356.991 28 240.061 28V40C350.364 40 440.123 129.75 440.123 240.061H452.123ZM240.061 452.122C356.99 452.122 452.123 357.004 452.123 240.061H440.123C440.123 350.376 350.364 440.122 240.061 440.122V452.122ZM28 240.062C28 357.004 123.127 452.122 240.061 452.122V440.122C129.755 440.122 40 350.376 40 240.062H28ZM94.474 240.062C94.474 159.789 159.788 94.474 240.061 94.474V82.474C153.16 82.474 82.474 153.161 82.474 240.062H94.474ZM121.658 324.614C104.57 300.755 94.474 271.575 94.474 240.062H82.474C82.474 274.181 93.414 305.787 111.902 331.602L121.658 324.614ZM323.865 112.538L112.537 323.865L121.023 332.351L332.351 121.024L323.865 112.538ZM240.061 94.474C271.575 94.474 300.755 104.565 324.614 121.658L331.602 111.904C305.787 93.4086 274.179 82.474 240.061 82.474V94.474ZM240.061 385.649C210.164 385.649 182.366 376.581 159.213 361.07L152.535 371.04C177.59 387.825 207.7 397.649 240.061 397.649V385.649ZM385.648 240.061C385.648 320.337 320.337 385.649 240.061 385.649V397.649C326.965 397.649 397.648 326.965 397.648 240.061H385.648ZM361.071 159.213C376.579 182.357 385.648 210.169 385.648 240.061H397.648C397.648 207.705 387.825 177.581 371.039 152.533L361.071 159.213ZM160.117 370.298L370.298 160.116L361.812 151.63L151.631 361.812L160.117 370.298ZM300.4 166.7C300.208 166.844 300.263 166.749 300.492 166.739C300.66 166.731 300.634 166.785 300.356 166.649C300.065 166.506 299.658 166.23 299.185 165.785C298.721 165.35 298.294 164.847 297.954 164.373L288.204 171.369C289.582 173.289 291.919 175.873 295.064 177.418C298.575 179.144 303.259 179.556 307.6 176.3L300.4 166.7ZM316.82 166.099C313.176 164.157 306.499 162.126 300.4 166.7L307.6 176.3C307.999 176.001 308.355 175.909 308.852 175.937C309.465 175.971 310.278 176.21 311.178 176.69L316.82 166.099ZM322.23 178.207C322.954 174.298 321.877 168.793 316.82 166.099L311.178 176.69C310.989 176.589 310.817 176.447 310.684 176.289C310.556 176.137 310.493 176.005 310.465 175.931C310.418 175.808 310.463 175.847 310.431 176.022L322.23 178.207ZM323.049 179.001C322.571 179.105 322.141 178.689 322.23 178.207L310.431 176.022C308.78 184.935 316.741 192.653 325.599 190.727L323.049 179.001ZM324.453 178.696L323.049 179.001L325.599 190.727L327.003 190.422L324.453 178.696ZM326.278 178.5C325.665 178.5 325.053 178.566 324.454 178.696L327.002 190.422C326.765 190.474 326.522 190.5 326.278 190.5V178.5ZM332.374 193.143C337.756 187.722 333.916 178.5 326.278 178.5V190.5C323.247 190.5 321.722 186.84 323.859 184.688L332.374 193.143ZM205.582 320.854L332.374 193.143L323.859 184.688L197.066 312.399L205.582 320.854ZM186.33 315.558C188.495 324.219 199.293 327.189 205.582 320.854L197.066 312.399C197.106 312.359 197.203 312.293 197.332 312.261C197.443 312.234 197.53 312.242 197.592 312.259C197.653 312.276 197.733 312.313 197.814 312.394C197.909 312.487 197.958 312.594 197.972 312.648L186.33 315.558ZM187.566 316.137C187.22 316.211 186.868 316.117 186.643 315.966C186.442 315.831 186.358 315.67 186.33 315.558L197.972 312.648C196.618 307.233 191.247 303.089 185.076 304.398L187.566 316.137ZM179.221 319.062C181.117 317.856 184.338 316.822 187.566 316.137L185.076 304.399C181.506 305.156 176.548 306.539 172.779 308.938L179.221 319.062ZM169.311 300.286C168.502 303.552 167.64 307.765 167.575 311.042C167.558 311.899 167.589 312.867 167.75 313.835C167.896 314.715 168.23 316.12 169.169 317.449C170.285 319.028 172.176 320.334 174.632 320.414C176.681 320.481 178.292 319.653 179.221 319.062L172.779 308.938C172.83 308.905 173.032 308.782 173.371 308.662C173.712 308.542 174.284 308.396 175.023 308.42C176.841 308.48 178.232 309.481 178.969 310.523C179.273 310.953 179.424 311.323 179.493 311.522C179.564 311.727 179.586 311.856 179.588 311.869C179.59 311.879 179.564 311.705 179.572 311.28C179.609 309.433 180.178 306.325 180.959 303.171L169.311 300.286ZM169.174 299.267C169.313 299.461 169.427 299.818 169.311 300.286L180.959 303.171C181.858 299.539 181.255 295.535 178.939 292.292L169.174 299.267ZM168.128 298.944C168.51 298.804 168.938 298.936 169.174 299.267L178.939 292.292C175.564 287.567 169.449 285.678 163.997 287.677L168.128 298.944ZM159.472 302.118L168.128 298.944L163.997 287.677L155.341 290.851L159.472 302.118ZM150.084 298.802C152.013 302.016 155.953 303.408 159.472 302.117L155.341 290.851C157.228 290.159 159.34 290.905 160.374 292.628L150.084 298.802ZM151.269 289.249C148.726 291.783 148.237 295.724 150.084 298.802L160.374 292.628C161.364 294.279 161.102 296.392 159.739 297.75L151.269 289.249ZM281.922 159.069L151.269 289.249L159.739 297.75L290.392 167.57L281.922 159.069ZM298.5 165.954C298.5 157.304 288.05 152.964 281.922 159.069L290.392 167.57C288.954 169.003 286.5 167.985 286.5 165.954H298.5ZM297.954 164.373C298.411 165.01 298.5 165.615 298.5 165.954H286.5C286.5 167.661 286.949 169.62 288.204 171.368L297.954 164.373Z" fill="black" mask="url(#path-1-inside-1)"/>
<path d="M230.366 298.981L130.848 180.193C126.777 175.334 118.891 177.318 117.606 183.524L110.197 219.327C106.907 235.221 111.593 251.719 122.746 263.515L224.553 371.194C237.433 384.816 259.836 382.052 269.014 365.708L431.776 75.8733C435.296 69.6059 432.881 61.6707 426.466 58.4226L421.613 55.9653C401.447 45.754 376.811 52.9041 365.255 72.323L230.366 298.981Z" fill="#72EB13" stroke="black" stroke-width="6"/>
</svg>
